 http://img855.imageshack.us/img855/8970/nimsisland2008.jpg

Country.......: USA
Genre.........: Adventure, Comedy, Family, Fantasy
Date release..: 30.03.2008 [World]
Director......: Jennifer Flackett, Mark Levin
Writers.......: Joseph Kwong, Paula Mazur
Duration......: 92 min.
More..........: http://www.imdb.com/title/tt0410377
Trailer.......: http://www.imdb.com/video/imdb/vi2712797465
Trailer.......:

Pilot :
A young girl inhabits an isolated island with her scientist father and communicates with a reclusive author of the novel she's reading. 

Cats :
Abigail Breslin   	 ...  	Nim Rusoe
Jodie Foster 	... 	Alexandra Rover
Gerard Butler 	... 	Jack Rusoe / Alex Rover
Michael Carman 	... 	Captain
Mark Brady 	... 	Purser
Anthony Simcoe 	... 	First Mate
Christopher Baker 	... 	Ensign
Peter Callan 	... 	Edmund's Father
Rhonda Doyle 	... 	Edmund's Mother
Russell Butler 	... 	Old Fisherman
Colin Gibson 	... 	Cruise Director
Bryan Probets 	... 	Australian Tourist #1
Andrew Nason 	... 	Australian Tourist #2
Dorothy Thorsen 	... 	Blue Haired Woman
Penny Everingham 	... 	Older Woman Tourist 

Data Technical :
!!! SAMPLE !!!
Audio.....: Dubbing Polish
Subtitles.: None
Format                           : AVI
Format/Info                      : Audio Video Interleave
File size                        : 700 MiB
Duration                         : 1h 31mn
Overall bit rate                 : 1 068 Kbps
Writing application              : VirtualDubMod 1.5.10.2 (build 2542/release)
Writing library                  : VirtualDubMod build 2542/release
Video
ID                               : 0
Format                           : MPEG-4 Visual
Format profile                   : Advanced Simple@L5
Format settings, BVOP            : Yes
Format settings, QPel            : No
Format settings, GMC             : No warppoints
Format settings, Matrix          : Default (H.263)
Codec ID                         : XVID
Codec ID/Hint                    : XviD
Duration                         : 1h 31mn
Bit rate                         : 930 Kbps
Width                            : 640 pixels
Height                           : 352 pixels
Display aspect ratio             : 16:9
Frame rate                       : 25.000 fps
Color space                      : YUV
Chroma subsampling               : 4:2:0
Bit depth                        : 8 bits
Scan type                        : Progressive
Bits/(Pixel*Frame)               : 0.165
Stream size                      : 610 MiB (87%)
Writing library                  : XviD 1.1.2 (UTC 2006-11-01)
Audio
ID                               : 1
Format                           : MPEG Audio
Format version                   : Version 1
Format profile                   : Layer 3
Mode                             : Joint stereo
Mode extension                   : MS Stereo
Codec ID                         : 55
Codec ID/Hint                    : MP3
Duration                         : 1h 31mn
Bit rate mode                    : Variable
Bit rate                         : 125 Kbps
Channel(s)                       : 2 channels
Sampling rate                    : 48.0 KHz
Stream size                      : 82.1 MiB (12%)
Alignment                        : Aligned on interleaves
Interleave, duration             : 24 ms (0.60 video frame)
Interleave, preload duration     : 484 ms

Screen : 
http://img684.imageshack.us/img684/7300/nimsisland2008s5.jpg 
http://img222.imageshack.us/img222/9161/nimsisland2008s1.jpg 
http://img696.imageshack.us/img696/5697/nimsisland2008s2.jpg 
http://img130.imageshack.us/img130/7941/nimsisland2008s3.jpg 
http://img534.imageshack.us/img534/6066/nimsisland2008s4.jpg